<svg xmlns="http://www.w3.org/2000/svg" viewBox="0 0 224 90" class="iconLeft"><!----><!----><!---->
    <g id="a7c7c257-f26c-4b4d-a6dd-587836fc6e68" fill="#FFFFFF"
       transform="matrix(5.70884859118442,0,0,5.70884859118442,103.60609539726296,-2.5261655090851463)">
        <path d="M10.36 13.58L10.36 3.92L7.84 3.92L7.84 8.05C7.84 8.61 7.85 9.60 7.92 10.58L4.26 3.92L1.12 3.92L1.12 13.58L3.64 13.58L3.64 9.59C3.64 9.03 3.64 8.18 3.56 7.20L7.07 13.58ZM13.13 3.07C12.35 3.07 11.83 3.54 11.83 4.30C11.83 5.05 12.35 5.53 13.13 5.53C13.92 5.53 14.43 5.05 14.43 4.30C14.43 3.54 13.92 3.07 13.13 3.07ZM14.39 13.58L14.39 6.10L11.87 6.10L11.87 13.58ZM20.43 5.91C19.95 5.91 19.36 6.12 18.96 6.57L18.42 7.62L18.42 6.10L15.90 6.10L15.90 13.58L18.42 13.58L18.42 10.84C18.42 8.58 19.11 7.88 21 8.01L21 5.95C20.82 5.92 20.66 5.91 20.43 5.91Z"/>
    </g><!---->
    <g id="2a3a6fea-e95b-4cd4-a488-b79ff9e62d0b" transform="matrix(2.8125,0,0,2.8125,0,0)"
       stroke="none" fill="#14E2B2">
        <path d="M0 16.024L15.976 32 32 15.976 16.024 0 0 16.024zm15.989 7.323l-7.336-7.336 14.694-.022-7.358 7.358z"/>
    </g><!---->
</svg>
